<?xml version="1.0" standalone="no"?>
<!DOCTYPE svg PUBLIC "-//W3C//DTD SVG 20010904//EN"
 "http://www.w3.org/TR/2001/REC-SVG-20010904/DTD/svg10.dtd">
<svg version="1.0" xmlns="http://www.w3.org/2000/svg"
 width="1071.000000pt" height="1072.000000pt" viewBox="0 0 1071.000000 1072.000000"
 preserveAspectRatio="xMidYMid meet">

<g transform="translate(0.000000,1072.000000) scale(0.100000,-0.100000)"
fill="#000000" stroke="none">
<path d="M832 10679 c-132 -22 -316 -105 -429 -192 -151 -116 -269 -283 -333
-467 -53 -157 -50 70 -48 -3784 2 -3623 3 -3896 16 -3896 4 0 7 40 6 89 0 50
3 89 7 88 4 -1 7 3 7 8 0 6 -3 9 -7 8 -4 -1 -8 5 -8 13 0 12 4 11 18 -2 10 -9
16 -20 14 -25 -3 -4 -1 -10 5 -14 14 -9 13 28 -2 43 -17 17 -18 59 -2 59 7 0
10 -5 6 -11 -10 -17 -11 -35 -1 -42 8 -5 13 10 10 29 -1 5 3 6 8 3 14 -9 28
16 26 46 -1 15 1 25 5 23 9 -5 7 -46 -3 -62 -4 -6 -3 -14 2 -17 5 -4 13 4 17
16 11 34 12 58 2 64 -5 3 -4 12 3 20 9 11 15 12 25 3 10 -8 11 -15 4 -24 -7
-9 -5 -16 7 -26 15 -12 16 -12 10 3 -3 10 -2 20 4 24 6 4 4 13 -8 26 -17 19
-26 65 -13 73 4 2 6 -8 6 -23 -1 -15 4 -28 9 -28 6 -1 9 2 7 8 -1 5 2 7 8 3 8
-5 8 -11 0 -20 -8 -9 -8 -15 0 -20 5 -3 10 -1 10 6 0 7 3 10 6 6 3 -3 2 -12
-2 -19 -10 -15 -16 -48 -10 -48 3 0 11 13 19 29 12 24 12 32 1 54 -9 17 -10
28 -4 32 6 4 7 11 4 17 -4 6 -2 8 3 5 13 -8 46 27 36 38 -5 4 -2 5 5 0 11 -5
7 -15 -16 -39 -27 -27 -29 -34 -18 -54 6 -12 15 -20 19 -16 4 4 2 13 -5 21 -9
11 -4 21 20 46 29 30 31 34 16 49 -13 13 -13 17 -2 23 7 5 10 4 5 0 -4 -5 2
-18 12 -29 19 -20 21 -24 21 -43 0 -5 5 -1 10 7 6 10 4 20 -8 33 -16 18 -26
101 -12 92 4 -2 6 -20 5 -40 -2 -19 1 -38 6 -41 5 -3 10 2 10 10 1 9 2 26 3
39 1 12 -5 31 -13 42 l-16 20 24 -20 c13 -11 26 -19 30 -18 3 1 8 -1 11 -4 3
-2 -1 -3 -9 -1 -9 2 -15 -6 -16 -23 -1 -14 -5 -33 -8 -42 -3 -9 -2 -19 3 -22
6 -4 11 -1 11 4 3 26 4 30 11 36 4 4 4 14 1 23 -4 15 -3 15 6 2 6 -8 11 -12
12 -7 5 26 4 34 -9 50 -8 9 -12 17 -7 17 4 0 2 6 -4 13 -8 10 -7 14 3 14 8 0
13 -8 11 -18 -2 -10 3 -23 11 -29 7 -7 12 -16 9 -20 -3 -5 -1 -11 4 -14 15
-10 21 22 6 34 -7 6 -12 19 -10 28 1 9 -3 23 -9 31 -8 11 -8 13 0 8 15 -9 32
13 29 35 -2 10 0 20 4 23 11 6 7 -37 -4 -55 -12 -19 -14 -59 -3 -66 8 -5 9 -1
12 35 0 11 4 22 7 26 7 6 5 -41 -2 -60 -2 -5 1 -11 6 -12 6 -2 10 1 10 6 0 5
3 12 7 16 3 4 4 17 2 30 -2 12 3 28 10 35 8 6 12 19 9 28 -4 14 -3 15 5 2 7
-9 7 -19 2 -26 -6 -6 -6 -15 -2 -19 4 -5 1 -5 -5 -1 -15 8 -18 -10 -4 -19 9
-5 24 10 27 30 1 6 6 19 10 29 5 13 4 17 -3 13 -12 -8 -12 11 0 29 3 6 3 14 0
18 -4 4 -8 16 -10 28 -2 12 -1 19 3 16 3 -3 7 -14 9 -25 1 -10 9 -17 16 -15 9
2 7 -3 -4 -16 -13 -14 -15 -22 -7 -27 6 -4 8 -16 5 -28 -6 -21 -6 -21 9 -3 11
13 13 23 6 31 -7 9 -6 16 5 25 8 7 13 16 10 20 -3 5 -1 11 5 15 6 4 7 12 3 18
-10 16 -12 57 -3 62 4 2 6 -10 6 -28 -1 -23 3 -31 13 -29 12 3 12 1 1 -13 -17
-21 -21 -43 -9 -51 5 -3 9 1 9 8 0 9 3 9 10 -2 6 -10 10 -11 10 -2 0 20 -4 27
-15 24 -5 -2 -1 6 10 18 11 12 18 24 15 25 -3 2 -2 6 1 9 3 4 12 -1 19 -9 11
-13 11 -16 1 -13 -19 4 -22 -29 -4 -44 14 -11 15 -10 9 12 -5 17 -4 20 2 12 7
-11 10 -9 15 7 3 11 -1 25 -9 32 -13 10 -12 14 1 29 8 9 12 20 8 24 -5 4 -1 6
7 4 9 -2 14 3 11 12 -7 31 -8 70 -2 74 4 3 7 -10 8 -27 4 -66 11 -100 27 -115
9 -10 16 -12 16 -5 0 7 -4 15 -10 18 -5 3 -8 16 -6 28 2 12 -2 28 -8 36 -8 11
-8 13 2 7 6 -4 13 -2 13 3 3 26 4 30 11 37 7 6 5 -14 -4 -42 -1 -7 0 -12 5
-13 4 -1 7 2 8 7 0 4 4 12 9 17 4 6 6 18 5 28 -2 9 1 15 6 11 5 -3 7 -9 4 -14
-3 -5 -1 -11 5 -15 5 -3 10 -17 10 -31 0 -14 4 -23 9 -19 6 3 8 15 5 28 -3 12
-6 27 -8 33 -5 26 -28 44 -41 34 -10 -8 -15 -8 -21 1 -4 7 -3 9 4 5 6 -3 14
-1 17 5 5 7 15 3 31 -12 27 -26 33 -15 7 13 -19 21 -27 52 -11 42 5 -3 7 -9 4
-12 -4 -3 4 -16 15 -28 17 -18 19 -27 11 -37 -7 -8 -9 -17 -6 -20 4 -3 8 -20
9 -37 1 -17 6 -34 10 -38 5 -4 5 1 2 10 -3 10 -2 20 3 23 9 6 8 24 -2 40 -4 6
-3 17 2 25 6 10 2 22 -12 37 -12 13 -18 23 -14 23 5 0 2 8 -5 18 -13 15 -12
16 3 3 10 -7 16 -17 13 -21 -2 -4 4 -15 15 -25 15 -14 17 -22 9 -39 -10 -20
-9 -20 5 -2 9 10 13 23 10 27 -3 5 0 17 5 27 6 11 13 34 17 53 7 41 9 50 17
69 21 55 76 254 71 261 -3 5 -1 9 4 9 9 0 48 117 44 133 -1 4 2 7 6 7 5 0 9 6
9 13 1 18 7 41 14 47 3 3 18 46 34 95 16 50 32 92 35 95 3 3 6 10 8 15 9 37
56 162 64 172 7 9 -7 13 -58 15 l-68 3 -22 75 c-12 41 -52 176 -88 300 -95
321 -234 792 -326 1100 -43 146 -127 427 -185 625 -161 544 -162 549 -234 716
l-67 155 428 1 427 0 -4 -31 c-2 -17 -6 -65 -9 -106 -3 -41 -8 -109 -12 -150
-5 -65 1 -105 40 -295 25 -121 48 -231 50 -245 2 -14 18 -88 35 -165 34 -155
159 -762 164 -797 2 -12 8 -23 13 -25 5 -1 56 118 113 265 57 147 220 564 363
927 142 363 264 675 271 693 13 32 16 23 181 -405 93 -241 170 -440 172 -442
4 -5 30 23 54 59 8 12 22 30 30 40 8 10 22 28 30 40 8 12 22 30 30 40 8 10 22
28 30 40 13 20 43 59 75 97 18 22 30 38 70 88 22 28 46 57 53 65 7 8 20 25 30
36 9 12 33 40 52 63 19 23 43 52 53 64 27 32 117 136 152 173 173 186 234 251
317 335 l96 99 72 257 c79 285 168 605 235 843 24 85 69 247 100 360 67 242
128 453 186 642 l42 137 299 0 c164 1 298 -3 298 -7 0 -5 -16 -55 -35 -113
-20 -57 -40 -122 -44 -144 -9 -43 -208 -740 -218 -765 -3 -8 -7 -19 -8 -25 -2
-5 -33 -115 -69 -243 -69 -244 -74 -266 -54 -240 7 8 40 35 73 60 33 25 70 54
82 64 11 11 31 26 43 34 12 8 28 20 34 25 6 6 31 24 56 40 25 17 50 35 57 40
7 6 18 15 26 21 7 6 23 15 35 18 12 4 20 12 17 17 -4 5 0 9 8 9 8 0 23 8 35
18 11 9 30 24 42 32 12 8 32 22 44 31 11 8 29 18 39 22 9 3 17 11 17 17 0 5 6
10 14 10 8 0 21 6 28 13 7 7 31 24 53 37 22 13 46 30 53 37 7 7 19 13 27 13 7
0 15 4 17 8 2 4 26 21 53 37 28 16 56 35 63 42 7 7 20 13 28 13 8 0 14 4 14
10 0 5 11 12 25 16 14 3 25 10 25 14 0 4 15 14 33 21 17 7 38 19 45 26 7 7 20
13 28 13 8 0 14 4 14 10 0 5 11 12 25 16 14 3 25 10 25 14 0 5 16 14 35 21 19
7 35 17 35 21 0 4 6 8 14 8 8 0 21 6 28 13 8 6 41 26 73 42 33 17 62 33 65 36
3 3 21 11 40 19 19 8 37 17 40 20 8 11 275 140 288 140 6 0 12 4 12 10 0 5 18
15 40 21 22 7 40 15 40 19 0 5 11 11 24 14 13 3 67 26 119 51 53 25 99 45 104
45 4 0 24 8 43 19 19 10 53 24 75 31 22 7 45 16 50 21 6 4 40 19 75 32 36 14
101 39 145 57 44 17 117 44 162 60 46 16 88 32 95 37 7 4 18 9 23 10 38 9 85
29 85 36 0 5 4 6 9 3 5 -4 22 -1 38 5 15 7 35 13 44 15 9 2 29 9 45 15 32 13
50 18 77 21 9 1 17 7 17 12 0 5 3 6 7 3 3 -4 15 1 26 10 12 10 17 12 12 4 -5
-9 -3 -12 6 -9 8 3 13 12 11 19 -3 11 -1 11 9 2 6 -6 18 -9 25 -6 12 4 12 8 2
22 -12 15 -11 15 7 0 22 -18 43 -14 63 10 8 9 11 10 7 4 -9 -19 6 -16 22 5 8
9 11 11 7 3 -6 -11 -3 -13 12 -7 10 4 26 9 34 11 8 2 17 4 20 5 3 1 8 2 13 1
4 -1 6 9 3 22 -2 12 2 31 10 42 8 10 14 14 14 8 0 -7 -4 -14 -9 -17 -14 -9 -6
-41 10 -39 8 1 25 4 39 8 44 11 55 13 63 14 4 1 7 6 7 12 0 6 -5 7 -12 2 -23
-13 -36 -11 -33 6 1 9 -5 25 -14 36 -16 20 -16 20 6 2 22 -19 34 -12 39 21 2
8 5 17 8 20 8 8 2 -30 -7 -44 -4 -7 1 -18 10 -25 15 -12 16 -12 10 3 -3 10 -2
20 2 22 5 3 7 17 6 30 -2 14 4 31 13 38 13 11 14 11 7 -2 -16 -25 -15 -47 0
-47 11 0 14 7 10 21 -5 18 -4 18 4 4 8 -11 7 -25 -5 -50 l-15 -33 6 30 c5 24
4 27 -6 18 -7 -7 -14 -25 -15 -40 -2 -15 0 -23 4 -18 4 6 14 12 22 13 73 17
85 20 88 22 1 2 11 4 22 5 11 1 22 4 25 5 3 1 10 3 15 4 6 0 15 8 20 16 9 13
10 13 10 0 0 -13 1 -13 10 0 8 13 10 13 10 1 0 -11 4 -9 15 5 11 15 15 16 15
4 1 -8 10 2 20 24 10 22 20 33 22 25 3 -8 -2 -25 -10 -39 -12 -21 -12 -23 0
-8 12 14 17 15 28 5 9 -9 11 -9 6 0 -3 6 -2 14 4 18 5 3 10 0 10 -7 1 -7 6 -3
13 10 7 12 16 20 20 16 4 -4 1 -14 -6 -23 -11 -14 -10 -14 5 -2 10 7 15 18 11
24 -10 17 -11 47 -1 53 4 3 8 -6 8 -20 0 -14 5 -28 10 -31 6 -4 8 -10 6 -14
-3 -4 2 -8 10 -8 9 0 11 4 5 10 -5 5 -7 17 -4 26 4 12 3 13 -5 2 -7 -10 -11
-5 -14 18 -3 18 -1 34 4 37 7 5 12 -10 9 -29 -1 -5 3 -6 9 -2 9 6 15 -16 10
-40 -1 -5 2 -7 6 -3 4 4 14 2 23 -4 12 -9 11 -7 -2 8 -17 21 -19 47 -4 71 4 6
3 14 -3 18 -5 3 -10 11 -10 17 0 6 6 6 15 -2 15 -13 16 -44 2 -66 -3 -6 3 -20
15 -30 13 -12 18 -13 13 -4 -13 21 -15 39 -5 45 5 3 5 16 1 28 -6 14 -3 29 6
44 9 13 13 29 10 38 -4 8 -2 17 2 20 13 7 20 -30 9 -49 -13 -23 -19 -58 -9
-51 5 2 14 -2 20 -9 8 -9 8 -17 2 -20 -5 -3 -11 -1 -13 6 -3 8 -7 6 -11 -5 -3
-9 -3 -16 1 -14 4 1 7 -2 7 -8 0 -5 -4 -9 -9 -7 -5 2 -4 -4 4 -12 14 -17 21
-20 19 -8 -1 4 0 10 1 15 1 4 4 12 5 17 1 6 4 12 5 15 3 7 7 22 9 36 0 5 5 8
10 4 6 -3 8 -14 6 -25 -2 -11 -1 -22 3 -24 4 -3 8 10 8 29 0 23 -5 32 -15 30
-8 -1 -17 -7 -19 -13 -2 -7 -8 -9 -14 -6 -13 8 22 45 36 37 6 -4 3 2 -6 13
-15 17 -15 22 -2 44 l15 25 -5 -24 c-3 -15 2 -35 13 -50 10 -14 17 -34 16 -44
-2 -9 0 -15 5 -12 10 6 8 24 -8 52 -12 22 0 44 13 23 3 -5 3 -10 -1 -10 -4 0
0 -8 9 -18 10 -10 14 -22 10 -27 -5 -4 -2 -5 5 -1 11 6 10 12 -4 27 -9 10 -14
19 -9 19 4 0 3 6 -2 13 -13 17 -10 43 5 39 8 -1 7 6 -4 23 -9 14 -14 28 -12
31 6 5 42 -45 43 -61 2 -19 -8 -27 -16 -14 -6 10 -9 10 -9 2 0 -35 33 -17 36
20 1 9 3 20 4 25 2 4 4 12 4 17 2 15 21 17 22 3 0 -7 -5 -20 -10 -28 -9 -13
-9 -13 6 -2 9 7 15 21 13 30 -2 9 -4 17 -5 17 -7 0 -6 36 1 41 8 5 13 -10 10
-29 -1 -5 3 -6 7 -3 12 7 44 -28 35 -39 -5 -4 -2 -5 5 -1 9 6 5 17 -18 42 -27
32 -33 63 -9 48 5 -3 7 -9 5 -13 -3 -4 9 -21 27 -37 17 -16 24 -20 14 -8 -16
20 -16 22 1 37 20 18 25 47 9 44 -6 -1 -14 9 -18 23 l-8 25 2 -25 c1 -14 -2
-31 -6 -38 -9 -13 -27 -7 -27 9 0 6 4 8 8 5 4 -2 8 5 8 17 0 21 -4 22 -111 24
-60 2 -147 4 -192 6 -52 2 -84 -1 -87 -7 -3 -7 -5 -7 -5 1 -1 15 -7182 17
-7269 2z m7250 -22 c-5 -7 -8 -20 -7 -29 2 -9 -5 -24 -14 -32 -15 -14 -18 -14
-18 -2 0 8 5 14 11 13 5 -1 11 8 12 21 1 12 3 25 4 30 1 4 2 11 1 15 -1 5 3 6
9 2 7 -4 8 -11 2 -18z m54 8 c-1 -8 -10 -22 -19 -33 -9 -10 -15 -22 -12 -25 3
-4 2 -5 -2 -2 -10 8 -13 36 -3 30 8 -5 23 11 26 28 3 14 4 17 8 17 2 0 3 -7 2
-15z m50 -2 c-3 -18 23 -67 31 -59 3 2 -1 14 -7 26 -10 18 -9 25 5 39 9 9 15
12 14 6 -4 -22 2 -29 12 -15 12 16 12 18 -6 -39 -5 -15 -4 -21 3 -17 6 3 14
21 17 38 l7 32 14 -30 c13 -28 14 -28 9 -3 l-5 26 100 -1 c55 -1 101 -5 103
-8 1 -3 -9 -21 -23 -40 -13 -18 -22 -34 -20 -34 3 -1 -3 -11 -13 -21 -9 -11
-14 -22 -11 -26 3 -3 3 -11 -1 -18 -6 -8 -13 -5 -26 12 -25 33 -23 50 2 19 15
-19 18 -20 12 -5 -9 18 -9 32 -3 53 1 4 5 -4 10 -18 5 -18 7 -11 6 26 -1 51
-16 67 -16 18 0 -14 -4 -23 -9 -20 -5 3 -7 16 -5 29 4 20 4 21 -5 2 l-10 -20
-1 20 -1 20 -9 -20 -9 -20 -1 20 -1 20 -10 -20 c-9 -19 -9 -18 -5 3 2 13 -1
22 -8 22 -7 0 -13 -8 -13 -17 1 -59 -4 -87 -12 -74 -5 7 -6 23 -4 35 4 17 3
18 -6 6 -6 -8 -8 -24 -5 -35 4 -14 3 -16 -4 -7 -7 11 -10 11 -15 -2 -3 -8 -2
-18 4 -21 5 -4 6 -11 3 -17 -4 -7 -2 -8 4 -4 7 4 10 2 9 -6 -2 -7 -2 -9 1 -4
2 4 9 2 14 -5 8 -11 9 -10 4 3 -6 20 10 34 16 15 3 -6 -3 -25 -12 -40 -17 -28
-17 -28 -23 -6 -5 18 -9 20 -21 10 -8 -7 -12 -19 -10 -26 3 -7 0 -23 -6 -35
-9 -16 -15 -19 -25 -10 -18 15 -31 -6 -15 -25 8 -9 8 -15 0 -20 -6 -3 -7 -12
-4 -18 5 -9 4 -9 -6 0 -13 12 -25 77 -12 69 4 -2 7 9 8 25 1 30 -9 38 -22 17
-4 -6 -3 -8 4 -5 6 5 8 -1 4 -15 -5 -21 -6 -21 -14 -2 -6 14 -7 11 -4 -11 l5
-30 -15 34 c-8 18 -17 31 -20 28 -3 -3 0 -15 6 -27 6 -12 9 -24 6 -28 -3 -3
-6 1 -6 9 -1 8 -8 3 -16 -11 -8 -14 -13 -17 -10 -8 3 10 1 20 -3 23 -5 3 -9
-19 -10 -48 -1 -59 -5 -84 -12 -92 -3 -3 -6 1 -7 8 -3 29 -20 98 -26 104 -3 4
-3 -7 0 -24 7 -36 -14 -112 -26 -93 -5 8 -9 8 -13 -4 -4 -9 -14 -13 -26 -11
-12 2 -25 -3 -31 -13 -5 -9 -10 -13 -10 -9 0 5 -6 5 -12 0 -7 -4 -21 -8 -30
-9 -10 -1 -20 -3 -23 -4 -14 -7 -31 -5 -44 4 -12 9 -13 8 -9 -5 4 -10 1 -16
-8 -16 -12 0 -12 4 1 24 9 13 13 23 10 23 -2 0 0 12 5 26 7 17 7 32 0 44 -7
13 -7 21 0 25 8 5 7 12 -2 23 -12 15 -11 16 5 3 12 -9 14 -18 8 -24 -7 -7 -5
-20 5 -38 14 -29 30 -40 21 -16 -6 18 12 49 25 41 8 -5 9 -1 4 12 -15 36 -15
53 0 65 12 9 12 15 2 28 -12 14 -11 14 5 2 15 -12 15 -16 4 -30 -7 -9 -12 -22
-11 -28 1 -7 2 -18 3 -24 0 -5 5 -8 10 -4 6 3 8 14 6 25 -2 10 3 24 11 31 13
10 12 15 -6 34 -17 18 -19 25 -8 31 7 4 10 3 5 -1 -4 -5 1 -17 10 -27 19 -21
25 -40 26 -80 0 -34 5 -35 16 -5 5 13 5 27 -1 34 -5 7 -7 16 -4 21 3 5 -3 17
-13 26 -11 10 -18 25 -16 34 1 9 -3 24 -9 32 -9 13 -9 13 6 2 9 -7 15 -22 13
-32 -2 -10 5 -26 16 -36 17 -15 29 -7 12 10 -4 3 -8 14 -9 22 -1 9 0 14 3 11
2 -3 5 -9 5 -14 0 -4 5 -14 10 -21 8 -9 8 -16 0 -24 -7 -7 -12 -17 -12 -22 1
-6 10 0 20 13 15 17 17 27 10 36 -6 7 -7 21 -3 30 5 14 3 16 -7 10 -9 -5 -11
-4 -6 4 12 18 28 2 20 -21 -4 -15 -3 -18 6 -13 8 5 11 4 6 -3 -3 -6 -2 -13 3
-16 14 -9 21 20 8 33 -6 6 -7 11 -3 11 5 0 2 7 -5 16 -13 16 -23 51 -11 39 4
-4 8 -11 8 -16 3 -19 4 -20 14 -14 7 4 6 14 -1 28 -7 12 -8 19 -4 14 5 -4 20
3 34 15 l26 23 -24 -27 c-12 -14 -20 -31 -17 -37 4 -5 2 -12 -3 -15 -12 -8 -9
-31 4 -31 6 0 9 5 7 11 -1 7 2 15 7 19 6 3 8 11 5 18 -4 12 30 52 44 52 4 0 6
5 4 11 -3 14 26 39 35 30 3 -3 1 -6 -6 -6 -7 0 -9 -5 -5 -12 4 -7 3 -8 -4 -4
-7 4 -12 3 -12 -3 0 -39 42 -1 46 42 2 23 3 27 8 27 2 0 3 -8 2 -17z m-176
-27 c0 -2 -8 -10 -17 -17 -16 -13 -17 -12 -4 4 13 16 21 21 21 13z m514 -37
c-9 -10 -21 -16 -26 -13 -5 3 -2 14 8 25 9 10 21 16 26 13 5 -3 2 -14 -8 -25z
m-148 8 c11 -11 14 -38 4 -32 -16 10 -32 -33 -20 -54 7 -14 7 -22 0 -26 -6 -4
-8 -10 -5 -15 3 -4 -1 -13 -9 -19 -11 -9 -13 -6 -11 21 4 43 -12 73 -29 59
-10 -8 -16 -7 -25 3 -9 11 -7 13 11 12 19 -1 24 5 26 30 3 26 7 31 27 30 13
-1 27 -5 31 -9z m-439 -52 c0 -8 -4 -12 -9 -9 -5 3 -6 10 -3 15 9 13 12 11 12
-6z m59 -12 c-4 -27 -22 -35 -37 -16 -12 16 -12 17 2 6 19 -15 33 -5 19 12 -7
8 -5 12 4 12 8 0 13 -6 12 -14z m-86 -47 c0 -2 -8 -10 -17 -17 -16 -13 -17
-12 -4 4 13 16 21 21 21 13z m-69 -49 c-6 -8 -7 -18 -3 -22 4 -5 1 -5 -6 -1
-10 6 -10 11 -1 22 6 8 14 14 16 14 3 0 0 -6 -6 -13z m463 -6 c3 -4 -4 -17
-15 -27 -21 -19 -21 -18 -8 9 13 30 15 31 23 18z m-404 -6 c0 -2 -6 -8 -13
-14 -10 -8 -14 -7 -14 2 0 8 6 14 14 14 7 0 13 -1 13 -2z m-42 -27 c-2 -7 4
-11 12 -10 8 2 12 0 8 -4 -4 -4 -4 -12 1 -18 6 -7 4 -18 -5 -30 -8 -11 -14
-15 -14 -9 0 7 5 15 11 18 7 5 3 15 -10 29 -12 12 -18 26 -14 29 10 10 13 8
11 -5z m285 -32 c-3 -5 -1 -6 5 -2 6 4 9 12 6 20 -3 7 2 13 10 13 17 0 7 -25
-18 -47 -14 -10 -16 -10 -17 6 0 11 -3 14 -6 6 -3 -7 0 -19 7 -27 9 -11 8 -19
-4 -37 -9 -12 -16 -18 -17 -13 -6 52 18 127 32 103 4 -7 5 -16 2 -22z m-359
-45 c3 -4 -4 -17 -17 -27 -22 -19 -22 -19 -4 2 9 11 14 24 10 27 -3 4 -4 7 0
7 3 0 8 -4 11 -9z m44 -27 c0 -17 -3 -22 -8 -13 -5 6 -6 19 -2 27 4 11 1 13
-8 7 -9 -5 -11 -4 -6 4 11 17 24 5 24 -25z m-93 -22 c-2 -9 -4 -19 -5 -22 -1
-3 -2 -9 -1 -14 1 -5 -5 -4 -13 4 -19 15 -20 21 -3 18 7 -2 12 6 11 19 -1 13
2 20 6 18 5 -3 7 -13 5 -23z m-75 -26 c0 -2 -8 -10 -17 -17 -16 -13 -17 -12
-4 4 13 16 21 21 21 13z m36 -62 c0 -13 -2 -22 -5 -19 -3 3 -6 17 -7 31 0 13
2 22 5 19 3 -3 6 -17 7 -31z m-30 -9 c-1 -8 -5 -17 -8 -21 -5 -4 -4 16 1 34 3
9 9 -1 7 -13z m-6845 -6742 c13 -16 12 -17 -3 -4 -10 7 -18 15 -18 17 0 8 8 3
21 -13z m26 -63 c-2 -11 -6 -22 -9 -26 -4 -3 -5 2 -3 13 2 10 4 21 4 26 1 4 3
7 6 7 3 0 4 -9 2 -20z m-52 -18 c-1 -9 2 -24 8 -32 9 -12 9 -13 -3 -2 -15 13
-23 65 -9 57 4 -3 6 -13 4 -23z m44 -57 c0 -5 -6 1 -14 15 -8 14 -14 30 -14
35 0 6 6 -1 14 -15 8 -14 14 -29 14 -35z m-103 -1 c-1 -8 -6 -17 -12 -21 -5
-4 -6 -4 -2 1 4 5 3 14 -2 21 -7 8 -5 12 4 12 8 0 13 -6 12 -13z m88 -10 c3
-8 2 -12 -4 -9 -6 3 -10 10 -10 16 0 14 7 11 14 -7z m-119 -43 c3 -5 2 -12 -3
-15 -5 -3 -9 1 -9 9 0 17 3 19 12 6z m-75 -57 c0 -8 -19 -13 -24 -6 -3 5 1 9
9 9 8 0 15 -2 15 -3z m6 -29 c-3 -23 -22 -39 -31 -26 -3 7 -1 10 6 9 7 -2 14
3 15 10 2 19 4 22 8 22 2 0 3 -7 2 -15z m-41 -34 c3 -5 2 -12 -3 -15 -5 -3 -9
1 -9 9 0 17 3 19 12 6z m-129 -136 c1 -8 -1 -17 -5 -19 -4 -3 -7 6 -7 19 0 25
8 25 12 0z m-119 -62 c-4 -3 -1 -13 6 -22 11 -14 10 -14 -5 -2 -16 12 -16 31
-1 31 4 0 3 -3 0 -7z m-105 -85 c-9 -9 -9 -15 1 -27 11 -14 10 -14 -6 -2 -13
10 -15 17 -6 27 6 8 14 14 17 14 3 0 1 -5 -6 -12z m-66 -63 c-1 -8 -5 -17 -8
-21 -5 -4 -4 16 1 34 3 9 9 -1 7 -13z m75 -8 c-10 -9 -11 -8 -5 6 3 10 9 15
12 12 3 -3 0 -11 -7 -18z m-28 -10 c-4 -7 -8 -15 -8 -19 0 -3 -3 -9 -7 -13 -5
-6 -4 19 2 35 1 3 2 9 1 13 -1 5 3 6 9 2 6 -3 7 -12 3 -18z m-103 -11 c0 -2
-8 -10 -17 -17 -16 -13 -17 -12 -4 4 13 16 21 21 21 13z m40 -49 c0 -2 -8 -11
-18 -20 -15 -14 -19 -15 -19 -2 0 8 4 12 8 9 4 -2 10 0 14 6 6 10 15 14 15 7z
m-54 -57 c0 -28 -2 -46 -6 -40 -5 8 -6 76 -1 88 4 9 6 -5 7 -48z m-29 -15 c0
-8 -4 -12 -9 -9 -5 3 -6 10 -3 15 9 13 12 11 12 -6z"/>
<path d="M8210 10653 c0 -4 5 -15 10 -23 8 -13 10 -13 10 2 0 9 -4 20 -10 23
-5 3 -10 3 -10 -2z"/>
<path d="M8297 10639 c4 -13 8 -18 11 -10 2 7 -1 18 -6 23 -8 8 -9 4 -5 -13z"/>
<path d="M8429 10658 c-7 -25 -7 -48 1 -53 11 -7 33 32 26 48 -2 7 -5 4 -5 -6
-1 -10 -6 -15 -11 -12 -6 4 -8 11 -5 16 4 5 4 9 1 9 -3 0 -6 -1 -7 -2z"/>
<path d="M8245 10598 c-10 -22 -20 -47 -21 -55 -2 -9 -10 -23 -20 -32 -14 -13
-16 -13 -10 -1 4 8 1 7 -7 -3 -8 -10 -17 -14 -19 -10 -3 4 -4 3 -2 -2 1 -6 -9
-11 -21 -11 -13 0 -22 3 -20 6 2 4 -5 21 -16 39 -11 18 -15 30 -10 27 5 -4 12
-2 15 3 10 16 -11 22 -24 7 -9 -12 -8 -20 5 -39 9 -14 13 -32 9 -42 -5 -11 -3
-16 2 -12 5 3 10 -2 10 -12 0 -10 -6 -18 -12 -18 -7 0 -10 7 -6 15 4 10 1 13
-7 8 -7 -5 -10 -15 -7 -23 4 -9 2 -11 -6 -7 -6 4 -8 3 -4 -4 3 -6 2 -13 -3
-16 -5 -4 -13 -1 -17 6 -5 8 -10 6 -16 -8 -8 -18 -8 -18 -5 1 1 11 9 20 17 20
8 0 15 9 15 20 0 11 4 18 9 17 5 -2 13 2 17 10 12 18 11 31 -1 23 -6 -4 -7 1
-3 11 4 12 3 15 -6 10 -7 -4 -10 -13 -8 -19 4 -13 -30 -63 -41 -61 -10 2 -36
-38 -40 -61 -1 -11 -7 -24 -12 -29 -5 -5 -5 -19 1 -34 5 -13 7 -27 4 -30 -3
-3 -5 0 -5 7 0 9 -5 9 -21 0 -18 -9 -19 -13 -8 -21 11 -8 10 -9 -4 -4 -12 4
-16 2 -11 -6 5 -7 3 -8 -6 -3 -9 6 -11 4 -5 -6 8 -12 6 -12 -8 0 -15 11 -17
11 -17 -2 0 -17 14 -17 48 1 12 7 20 17 17 23 -4 5 -1 9 4 9 6 0 11 -6 11 -12
0 -9 4 -8 10 2 9 13 10 13 11 0 0 -8 7 -1 14 15 11 24 14 26 15 10 1 -17 3
-17 11 5 6 14 8 40 5 57 -2 18 -1 35 4 38 13 8 28 -17 33 -55 3 -25 4 -21 4
16 0 58 7 76 28 67 11 -4 14 1 13 18 -2 18 1 23 15 21 10 -2 25 2 32 8 20 17
36 3 31 -27 -3 -14 -2 -23 1 -19 3 3 13 0 22 -7 14 -10 14 -10 3 5 -8 10 -9
19 -3 22 5 3 11 3 14 -1 2 -5 2 -2 0 6 -2 8 3 21 11 30 15 16 16 44 3 57 -3 4
1 20 9 35 8 17 11 35 7 44 -6 10 -13 3 -28 -27z m13 -13 c-6 -14 -13 -23 -15
-21 -5 5 15 46 22 46 3 0 -1 -11 -7 -25z m-2 -63 c2 -9 -8 -30 -22 -47 -14
-16 -22 -23 -19 -14 4 10 2 20 -4 24 -7 4 -3 17 11 35 22 31 30 31 34 2z
m-219 -182 c-3 -20 -4 -19 -6 8 0 18 -5 31 -10 28 -5 -3 -7 -14 -5 -24 3 -9 1
-28 -4 -42 -9 -25 -9 -25 -16 7 -4 18 -4 38 1 45 8 14 10 19 12 46 1 12 6 8
17 -13 8 -16 13 -41 11 -55z"/>
<path d="M8240 10511 c0 -7 -4 -10 -9 -6 -5 3 -12 1 -15 -4 -4 -5 -2 -12 3
-15 11 -7 36 22 27 31 -3 3 -6 1 -6 -6z"/>
<path d="M8002 10340 c0 -14 2 -19 5 -12 2 6 2 18 0 25 -3 6 -5 1 -5 -13z"/>
<path d="M8165 10604 c-11 -17 -12 -24 -4 -18 12 6 12 5 1 -8 -8 -11 -9 -18
-3 -22 6 -4 15 8 21 26 l10 33 -5 -33 c-3 -18 -1 -31 4 -28 15 10 19 42 6 59
-11 16 -14 15 -30 -9z"/>
<path d="M8204 10563 c-10 -20 -20 -31 -22 -24 -3 8 -8 6 -18 -6 -12 -15 -13
-15 -8 -2 3 10 0 20 -6 24 -7 4 -9 -2 -6 -20 3 -15 2 -24 -2 -20 -7 6 -8 10
-11 36 0 5 -5 7 -11 4 -6 -4 -4 -18 6 -37 14 -27 18 -29 26 -15 5 10 13 15 18
12 5 -3 11 -1 15 5 4 6 11 8 16 5 5 -4 9 -3 10 2 1 15 7 38 14 56 13 33 -4 17
-21 -20z"/>
<path d="M8126 10581 c-4 -5 -2 -12 3 -15 5 -4 12 -2 15 3 4 5 2 12 -3 15 -5
4 -12 2 -15 -3z"/>
<path d="M7939 10418 c-1 -5 -2 -16 -3 -25 -3 -28 -26 -64 -37 -58 -8 6 -13
-9 -10 -29 1 -4 -3 -14 -9 -21 -6 -7 -8 -21 -4 -31 5 -18 5 -18 -6 -1 -6 9 -9
21 -5 26 3 5 1 12 -5 16 -5 3 -11 -1 -11 -9 -1 -9 -2 -23 -3 -33 -2 -28 34
-24 45 5 5 15 12 34 16 42 3 8 7 18 7 22 3 19 12 14 12 -7 0 -13 -4 -21 -8
-19 -4 3 -8 -2 -8 -11 0 -14 5 -13 29 7 31 24 38 42 21 53 -6 4 -8 15 -5 26 4
10 2 27 -4 36 -6 10 -11 15 -12 11z m10 -99 c-5 -10 -12 -19 -15 -19 -2 0 0 8
5 18 7 13 6 23 -2 32 -10 12 -9 12 5 1 14 -10 15 -18 7 -32z"/>
<path d="M8335 10597 c-9 -28 -9 -46 0 -44 5 1 9 13 7 27 -1 23 -1 23 7 5 9
-18 10 -18 10 -2 1 12 6 16 14 11 6 -4 8 -3 4 1 -12 14 -38 15 -42 2z"/>
<path d="M8533 10664 c0 -7 4 -11 8 -9 6 4 22 -10 31 -27 1 -3 -7 -17 -20 -31
-21 -23 -22 -25 -5 -38 15 -11 16 -11 6 1 -10 11 -9 17 4 33 19 21 26 67 9 64
-6 -1 -10 3 -9 9 1 6 -4 11 -11 11 -7 0 -13 -6 -13 -13z"/>
<path d="M8594 10656 c1 -14 4 -28 7 -31 3 -3 5 6 5 19 -1 14 -4 28 -7 31 -3
3 -5 -6 -5 -19z"/>
<path d="M8623 10665 c0 -8 4 -12 9 -9 5 3 6 10 3 15 -9 13 -12 11 -12 -6z"/>
<path d="M8574 10588 l-19 -23 23 19 c21 18 27 26 19 26 -2 0 -12 -10 -23 -22z"/>
<path d="M8473 10540 c2 -8 -2 -22 -10 -32 -12 -13 -12 -17 -1 -24 7 -4 10 -3
5 1 -4 5 -1 16 7 24 11 12 12 21 5 31 -9 13 -10 13 -6 0z"/>
<path d="M8519 10513 c-13 -16 -12 -17 4 -4 16 13 21 21 13 21 -2 0 -10 -8
-17 -17z"/>
<path d="M8433 10485 c4 -5 0 -16 -9 -26 -12 -14 -13 -18 -2 -25 7 -4 10 -3 5
1 -4 5 0 16 9 26 12 14 13 18 2 25 -7 4 -10 3 -5 -1z"/>
<path d="M8390 10436 c0 -2 8 -10 18 -17 15 -13 16 -12 3 4 -13 16 -21 21 -21
13z"/>
<path d="M7726 10211 c-4 -5 -2 -12 3 -15 5 -4 12 -2 15 3 4 5 2 12 -3 15 -5
4 -12 2 -15 -3z"/>
<path d="M3930 7536 c0 -2 8 -10 18 -17 15 -13 16 -12 3 4 -13 16 -21 21 -21
13z"/>
<path d="M4120 7488 c-5 -13 -80 -268 -166 -568 -85 -300 -247 -864 -359
-1255 -473 -1648 -695 -2426 -695 -2430 0 -3 146 -5 324 -5 l323 0 82 308
c106 399 237 892 416 1562 42 157 109 409 150 560 40 151 97 366 126 477 30
112 56 203 59 203 3 0 16 -33 30 -73 443 -1259 676 -1917 681 -1917 3 0 27 55
52 123 25 67 103 273 172 457 241 636 346 916 437 1158 50 133 93 241 95 238
6 -5 52 -199 148 -611 41 -176 95 -407 120 -512 l45 -193 0 -266 0 -266 98 6
c53 3 154 8 225 12 l127 6 0 -31 0 -31 -247 -2 -248 -3 -3 -60 -3 -60 323 1
323 1 3 61 3 61 -48 3 c-43 3 -48 6 -51 29 -3 25 0 26 50 32 29 4 101 7 159 7
58 0 108 2 111 5 3 3 -38 102 -92 219 -88 191 -107 245 -190 527 -218 743
-415 1410 -574 1947 -41 140 -77 256 -80 259 -5 6 -188 19 -335 24 l-84 3 -58
-169 c-31 -94 -125 -370 -208 -615 -84 -245 -175 -514 -204 -597 -28 -84 -54
-147 -58 -140 -4 6 -52 143 -107 302 -121 351 -226 652 -334 962 -80 231 -81
233 -112 237 -17 3 -107 10 -201 16 -93 6 -180 13 -193 16 -16 3 -25 -2 -32
-18z"/>
<path d="M3900 7446 c0 -2 8 -10 18 -17 15 -13 16 -12 3 4 -13 16 -21 21 -21
13z"/>
<path d="M3906 7407 c3 -10 9 -15 12 -12 3 3 0 11 -7 18 -10 9 -11 8 -5 -6z"/>
<path d="M3892 7378 c7 -15 15 -23 17 -17 2 6 -4 18 -13 27 -15 15 -15 15 -4
-10z"/>
<path d="M3884 7325 c0 -13 3 -22 7 -19 8 4 6 30 -2 38 -3 3 -5 -5 -5 -19z"/>
<path d="M10195 5600 l-30 -8 32 -1 c17 0 35 4 38 9 7 11 3 11 -40 0z"/>
<path d="M10058 5573 c6 -2 18 -2 25 0 6 3 1 5 -13 5 -14 0 -19 -2 -12 -5z"/>
<path d="M9930 5554 l-55 -13 53 6 c29 3 65 9 80 13 l27 8 -25 0 c-14 0 -50
-6 -80 -14z"/>
<path d="M9838 5533 c7 -3 16 -2 19 1 4 3 -2 6 -13 5 -11 0 -14 -3 -6 -6z"/>
<path d="M9723 5523 c-18 -2 -33 -8 -33 -12 0 -5 24 -4 53 1 84 16 72 22 -20
11z"/>
<path d="M8603 5443 c9 -2 25 -2 35 0 9 3 1 5 -18 5 -19 0 -27 -2 -17 -5z"/>
<path d="M9890 5439 c-88 -15 -224 -59 -213 -70 6 -6 26 -2 54 10 93 41 353
73 399 49 57 -30 78 -128 54 -243 -28 -128 -14 -222 40 -267 25 -21 79 -33
103 -23 14 6 7 10 -26 16 -52 10 -86 39 -102 87 -12 36 -10 83 11 222 15 102
4 157 -40 202 -28 27 -31 28 -127 27 -54 -1 -123 -5 -153 -10z"/>
<path d="M8710 5425 c19 -7 42 -13 50 -13 8 0 -1 6 -20 13 -19 7 -42 13 -50
13 -8 0 1 -6 20 -13z"/>
<path d="M8494 5414 c-18 -14 -18 -14 6 -3 31 14 36 19 24 19 -6 0 -19 -7 -30
-16z"/>
<path d="M8410 5330 c-6 -11 -8 -20 -6 -20 3 0 10 9 16 20 6 11 8 20 6 20 -3
0 -10 -9 -16 -20z"/>
<path d="M8380 5280 c-6 -11 -7 -20 -2 -20 6 0 12 9 15 20 3 11 3 20 1 20 -2
0 -8 -9 -14 -20z"/>
<path d="M3160 4863 c12 -18 12 -26 0 -50 -7 -15 -13 -32 -11 -36 1 -5 -3 -6
-9 -2 -7 4 -7 11 -2 18 19 25 20 46 4 58 -14 11 -15 11 -6 0 13 -14 7 -54 -6
-46 -5 3 -7 -6 -5 -20 1 -14 -2 -28 -7 -31 -4 -3 -6 -10 -3 -15 3 -5 -1 -6 -9
-3 -9 3 -16 11 -16 17 0 22 -13 -4 -16 -33 -3 -25 -1 -28 10 -18 10 9 11 15 3
20 -6 4 -9 10 -6 13 4 3 11 -1 18 -8 8 -11 6 -18 -10 -33 -17 -16 -22 -16 -31
-4 -8 13 -9 12 -5 -2 3 -9 3 -19 -1 -23 -4 -4 -7 -12 -7 -18 -1 -7 -6 -11 -11
-10 -6 1 -10 -8 -9 -20 1 -12 -3 -29 -9 -37 -10 -13 -9 -13 7 -1 9 8 15 16 13
19 -3 2 0 14 6 26 7 11 12 25 13 30 0 5 8 10 18 12 17 2 17 1 3 -15 -9 -10
-13 -21 -9 -26 5 -4 2 -5 -6 0 -11 6 -13 2 -9 -18 3 -17 1 -24 -5 -20 -6 4 -8
0 -4 -11 4 -10 3 -15 -3 -11 -6 3 -10 -5 -10 -18 0 -31 -10 -40 -29 -24 -14
10 -14 10 -5 -3 7 -8 14 -24 17 -35 4 -18 5 -18 6 3 0 12 5 22 11 22 6 0 6
-10 -1 -27 -5 -14 -8 -32 -5 -39 3 -8 0 -16 -6 -20 -6 -4 -8 -3 -5 3 4 6 0 19
-9 29 -14 18 -14 17 -3 -6 13 -27 13 -28 -4 -49 -9 -12 -9 -13 1 -7 8 5 12 0
12 -14 0 -14 4 -19 13 -14 7 5 6 0 -3 -11 -8 -10 -14 -20 -12 -22 6 -9 1 -33
-8 -33 -7 0 -7 6 -2 18 5 9 8 25 6 35 -5 32 -12 29 -13 -5 -1 -63 -2 -68 -12
-62 -6 3 -5 -3 3 -15 7 -12 16 -21 20 -21 12 0 30 41 24 55 -3 8 -1 15 3 17 8
3 34 91 131 433 21 75 22 101 4 116 -16 13 -16 12 -4 -8z m-148 -580 c-6 -2
-9 -10 -6 -15 4 -7 2 -8 -5 -4 -13 9 -5 26 12 25 9 0 8 -2 -1 -6z"/>
<path d="M7414 4730 c-91 -6 -109 -16 -149 -85 -34 -58 -48 -116 -60 -245 l-7
-75 231 -230 c127 -126 231 -233 231 -237 0 -4 -397 -8 -882 -8 -485 0 -886
-4 -890 -8 -4 -4 -5 -24 -1 -45 l6 -37 559 0 559 0 -3 -42 -3 -43 -395 -5
-395 -5 -50 -27 c-123 -65 -175 -196 -123 -309 41 -90 110 -148 194 -164 16
-3 513 -5 1104 -5 1224 -1 1150 -6 1228 79 44 48 82 131 82 181 0 53 -39 136
-80 174 -79 71 -73 70 -487 74 l-373 3 -6 24 c-3 13 -4 32 -2 42 3 17 19 18
201 21 l197 2 0 45 c0 41 -2 45 -25 45 l-25 0 0 123 c-1 467 -76 755 -199 758
-170 3 -370 3 -437 -1z m-14 -271 l0 -199 -28 0 c-19 0 -40 12 -66 39 l-39 40
5 98 c6 118 30 182 79 212 18 11 36 18 41 15 4 -3 8 -95 8 -205z m438 192 c48
-26 112 -230 112 -358 l0 -33 -235 0 -235 0 -1 63 c-2 78 -1 272 0 312 l1 31
168 -1 c115 -1 174 -5 190 -14z m124 -506 c12 -70 9 -202 -4 -208 -7 -2 -33
-3 -58 -2 -25 1 -85 3 -135 4 l-90 2 -121 119 c-67 65 -121 120 -119 122 2 2
120 3 261 3 l259 0 7 -40z m-1616 -584 c23 -10 48 -29 57 -41 l15 -22 911 -1
911 0 39 36 c52 47 95 55 155 29 141 -63 99 -272 -54 -272 -46 0 -103 29 -120
61 -10 18 -35 19 -925 19 l-915 0 -15 -24 c-9 -13 -31 -31 -50 -40 -102 -49
-209 20 -207 133 0 52 23 87 78 118 47 27 67 28 120 4z m229 -286 c0 -5 -17
-11 -37 -13 -30 -3 -38 0 -38 13 0 13 8 16 38 13 20 -2 37 -7 37 -13z m225 0
c0 -10 -11 -15 -35 -15 -24 0 -35 5 -35 15 0 10 11 15 35 15 24 0 35 -5 35
-15z m230 0 c0 -10 -11 -15 -35 -15 -24 0 -35 5 -35 15 0 10 11 15 35 15 24 0
35 -5 35 -15z m230 0 c0 -10 -11 -15 -35 -15 -24 0 -35 5 -35 15 0 10 11 15
35 15 24 0 35 -5 35 -15z m230 0 c0 -10 -11 -15 -35 -15 -24 0 -35 5 -35 15 0
10 11 15 35 15 24 0 35 -5 35 -15z m230 0 c0 -16 -64 -22 -74 -6 -9 14 5 21
41 21 23 0 33 -5 33 -15z m230 0 c0 -16 -64 -22 -74 -6 -9 14 5 21 41 21 23 0
33 -5 33 -15z m230 0 c0 -16 -64 -22 -74 -6 -9 14 5 21 41 21 23 0 33 -5 33
-15z"/>
<path d="M3005 4551 c-3 -5 -2 -12 3 -15 5 -3 9 1 9 9 0 17 -3 19 -12 6z"/>
<path d="M6810 4440 c0 -33 4 -43 19 -47 14 -4 21 -15 23 -42 4 -48 31 -49 38
-1 4 26 11 36 29 40 21 5 24 11 24 45 l0 40 -66 3 -67 3 0 -41z"/>
<path d="M6080 4252 c-68 -7 -90 -14 -114 -37 -52 -48 -19 -72 56 -40 30 12
126 14 591 14 l556 0 81 -55 c45 -31 83 -54 85 -52 3 2 -33 42 -79 87 l-84 84
-534 1 c-293 1 -544 0 -558 -2z"/>
<path d="M6170 4020 l0 -70 205 0 206 0 -3 68 -3 67 -202 3 -203 2 0 -70z"/>
<path d="M9644 3795 c-27 -37 -77 -101 -111 -145 -34 -43 -70 -91 -80 -107
-10 -16 -52 -72 -93 -126 l-75 -97 -49 0 c-48 0 -49 0 -31 -20 10 -11 25 -20
34 -20 9 0 25 -7 35 -15 11 -9 42 -15 70 -15 28 0 69 -5 91 -10 82 -18 335
-41 476 -42 136 0 151 1 201 24 72 33 99 76 106 168 7 103 -18 161 -121 285
-31 37 -220 185 -236 185 -6 0 -23 -18 -37 -40 -14 -22 -35 -42 -45 -45 -30
-10 -57 12 -61 47 -2 17 -8 33 -14 35 -6 2 -33 -26 -60 -62z"/>
<path d="M749 3207 c-1 -4 -2 -10 -3 -14 -3 -17 -18 -33 -25 -28 -5 2 -8 -6
-7 -18 1 -25 27 -30 34 -7 5 13 3 13 -13 0 -17 -14 -17 -14 -4 7 l14 23 12
-23 c12 -20 13 -18 7 18 -6 38 -13 56 -15 42z"/>
<path d="M657 3143 c-15 -15 -15 -19 -2 -33 13 -14 13 -21 -4 -52 -11 -22 -15
-42 -10 -50 6 -9 9 -6 10 12 l1 25 7 -25 c7 -24 7 -24 13 -3 3 12 1 27 -6 34
-8 9 -8 10 3 4 10 -6 13 -4 9 6 -3 8 -2 23 3 34 6 16 8 17 8 3 1 -11 8 -16 20
-13 15 3 18 -1 14 -12 -4 -11 -3 -14 6 -9 7 5 10 15 7 23 -3 8 -1 11 4 8 6 -3
10 2 11 12 0 16 1 16 8 -2 8 -19 8 -19 15 3 4 13 10 21 12 19 3 -2 -1 -16 -7
-31 -9 -20 -15 -23 -21 -14 -7 10 -8 10 -7 -2 1 -8 1 -22 0 -30 -1 -12 -3 -13
-10 -1 -6 9 -11 10 -15 2 -4 -6 -2 -11 3 -11 6 0 11 -9 11 -21 0 -11 -5 -17
-10 -14 -6 4 -8 10 -5 15 3 5 0 12 -6 16 -8 5 -9 3 -4 -6 5 -8 4 -11 -2 -7 -6
4 -9 -9 -7 -34 2 -24 -1 -37 -7 -33 -5 3 -8 19 -5 35 2 16 -1 32 -6 36 -7 4
-9 -2 -6 -15 4 -12 2 -20 -2 -17 -4 3 -6 -5 -4 -17 4 -22 4 -22 -6 -3 -10 19
-10 19 -6 -3 3 -14 0 -20 -6 -15 -7 3 -8 1 -4 -5 5 -8 2 -10 -8 -6 -10 4 -16
0 -17 -10 -3 -29 -4 -34 -13 -43 -5 -4 -6 7 -2 27 l6 35 -14 -35 c-19 -47 -20
-23 -1 30 18 51 13 64 -8 22 -8 -16 -14 -48 -13 -71 1 -22 -2 -41 -6 -41 -4 0
-8 16 -8 36 0 19 -4 33 -9 30 -4 -3 -6 -17 -3 -31 2 -14 -1 -32 -8 -40 -7 -8
-10 -22 -6 -30 3 -8 1 -15 -4 -15 -6 0 -10 9 -10 19 0 11 -5 23 -11 27 -9 5
-10 -2 -6 -22 3 -16 4 -23 0 -16 -3 9 -11 3 -24 -18 -11 -17 -23 -29 -28 -26
-5 3 -8 -7 -7 -23 1 -17 -2 -28 -6 -25 -4 3 -8 11 -8 19 0 7 -7 15 -15 19 -8
3 -15 1 -15 -4 0 -6 5 -10 10 -10 6 0 10 -5 10 -11 0 -5 -4 -8 -9 -5 -14 9
-29 -16 -34 -54 l-4 -35 -1 38 c-1 21 -6 36 -10 33 -5 -3 -8 -18 -7 -33 1 -15
0 -19 -2 -8 -3 11 -9 25 -15 30 -7 7 -8 2 -3 -14 9 -28 -14 -79 -27 -59 -5 10
-8 8 -8 -4 0 -10 5 -18 10 -18 6 0 10 -5 10 -10 0 -7 -6 -7 -20 0 -12 7 -17
16 -13 28 7 18 5 17 -17 -12 -8 -11 -10 -17 -5 -14 6 4 11 -5 12 -20 l2 -27
-10 24 c-5 13 -12 21 -15 18 -3 -3 -1 -14 5 -25 17 -33 14 -44 -9 -32 -11 6
-21 8 -21 5 -1 -3 -2 -8 -3 -12 -1 -5 -5 -13 -9 -20 -4 -7 -5 -25 -2 -40 4
-23 4 -24 -4 -8 l-10 20 -1 -20 -1 -20 -9 20 c-8 18 -9 18 -9 2 -1 -12 -5 -16
-13 -10 -19 11 -39 13 -32 2 3 -5 0 -8 -8 -7 -7 2 -12 -3 -10 -11 2 -11 0 -12
-11 -3 -13 12 -27 7 -27 -9 0 -5 7 -6 15 -3 10 4 15 0 15 -12 0 -16 -2 -17
-10 -4 -8 11 -9 7 -5 -15 4 -24 3 -26 -4 -10 l-10 20 -1 -20 -1 -20 -8 20 -8
20 -6 -20 c-3 -14 -4 -12 -4 7 1 21 4 24 14 16 17 -14 17 2 0 27 -14 22 -15
34 -4 52 4 6 3 14 -3 18 -12 8 -13 7 -15 -85 -1 -41 -3 -86 -4 -100 -2 -23 -3
-23 -11 -5 -5 12 -7 -9 -5 -57 1 -43 7 -84 14 -91 6 -8 7 -18 3 -22 -4 -5 -1
-5 5 -1 7 4 13 3 13 -2 0 -17 -13 -22 -29 -9 -14 10 -14 10 -4 -4 7 -9 11 -18
8 -21 -3 -3 5 -13 17 -24 23 -19 23 -19 6 2 -16 19 -16 21 -1 37 13 12 14 19
5 30 -7 8 -8 18 -4 22 4 5 2 5 -4 2 -7 -4 -12 3 -12 20 l0 26 18 -24 c10 -13
16 -27 14 -31 -2 -3 0 -9 6 -13 6 -4 7 -11 4 -17 -4 -7 -2 -8 5 -4 7 5 9 12 3
19 -4 7 -8 18 -8 25 1 14 20 17 22 2 1 -5 3 -13 4 -17 1 -5 2 -11 2 -15 -1 -3
6 -12 16 -20 15 -12 16 -11 3 5 -7 9 -10 17 -6 17 4 0 2 6 -4 14 -9 10 -8 16
4 26 8 7 12 17 8 24 -4 6 -9 19 -10 30 -3 16 -1 17 12 6 8 -7 13 -16 10 -19
-2 -4 3 -8 11 -8 11 0 10 5 -6 22 -30 32 -24 42 7 14 l28 -24 -23 26 c-12 14
-19 28 -16 32 4 3 15 -4 25 -16 11 -12 18 -17 17 -12 -3 9 4 15 17 15 3 0 1
-9 -4 -19 -8 -14 -7 -22 7 -32 14 -11 15 -11 5 1 -8 9 -9 19 -3 30 7 13 5 22
-5 30 -9 8 -12 17 -6 24 4 6 7 21 6 34 -2 22 14 44 16 23 1 -6 2 -17 3 -23 1
-7 -1 -20 -6 -29 -5 -11 -2 -21 10 -30 14 -11 15 -11 5 1 -9 9 -9 19 -2 32 9
16 13 17 27 6 9 -7 7 -1 -6 14 -29 32 -33 55 -15 91 15 30 30 38 18 10 -17
-42 -14 -70 10 -93 13 -13 21 -28 17 -34 -10 -17 -11 -37 -1 -30 5 3 7 9 4 14
-3 5 -1 11 5 15 6 4 8 10 5 15 -3 5 0 12 5 15 8 5 6 13 -6 26 -13 14 -20 16
-31 8 -16 -14 -17 3 -1 19 9 9 19 6 42 -16 27 -24 28 -24 9 -2 l-22 25 25 28
c13 16 22 32 19 37 -3 5 -1 11 4 14 21 14 19 -14 -3 -47 -24 -35 -24 -36 -5
-53 10 -9 16 -22 12 -28 -3 -6 -2 -7 2 -3 5 4 10 15 11 23 1 9 0 13 -3 10 -4
-3 -12 -1 -19 5 -10 8 -6 20 18 55 24 37 33 43 44 33 13 -10 12 -14 -1 -29
-12 -14 -13 -20 -4 -26 7 -4 10 -3 6 3 -4 6 0 16 8 23 14 11 14 15 -1 31 -10
11 -13 19 -9 19 5 0 4 5 -2 11 -13 13 4 62 19 53 5 -3 4 -12 -3 -20 -8 -10 -8
-18 -1 -26 6 -7 11 -17 12 -23 1 -5 4 -11 6 -12 2 -2 2 0 -1 4 -3 3 2 15 11
25 14 14 20 16 33 6 13 -9 12 -8 -1 7 -16 17 -15 20 13 57 17 21 34 36 38 33
7 -4 10 5 12 38 1 13 -9 61 -18 92 -5 17 -4 18 10 7 9 -8 14 -19 11 -27 -3 -7
-1 -16 5 -19 6 -4 8 -13 5 -20 -3 -8 0 -17 6 -21 8 -5 7 -11 -2 -23 -12 -15
-11 -16 5 -3 12 10 15 17 7 25 -19 19 -10 29 10 11 18 -17 19 -20 4 -36 -10
-11 -12 -19 -4 -24 5 -3 8 -10 5 -15 -3 -5 -1 -11 4 -14 10 -7 9 13 -2 30 -4
7 0 17 8 24 14 12 14 15 -2 34 -16 19 -19 35 -14 84 3 30 17 0 15 -31 -2 -24
3 -40 17 -53 17 -16 18 -19 3 -35 -12 -13 -12 -19 -3 -25 7 -4 10 -3 6 3 -4 6
0 16 8 23 14 12 14 15 0 30 -14 15 -13 19 6 36 12 10 28 32 36 47 12 25 16 27
31 15 15 -11 15 -11 4 3 -10 13 -10 18 1 28 8 6 16 9 19 6 2 -3 5 2 5 10 0 8
-4 12 -8 10 -3 -3 -12 1 -18 9 -9 10 -7 17 5 27 10 8 20 13 23 11 3 -2 7 2 9
10 2 9 0 8 -7 -2 -8 -12 -11 -7 -11 22 0 20 5 40 10 43 7 4 9 -3 6 -19 -3 -16
-1 -24 5 -20 6 3 8 8 5 11 -3 3 -1 15 5 26 8 15 8 18 -1 12 -8 -5 -11 -3 -8 6
3 8 9 13 14 12 8 -1 13 24 17 80 1 9 6 17 11 17 5 0 6 3 3 6 -3 4 -2 14 3 24
5 9 6 27 3 40 -5 21 -7 21 -13 6 -3 -10 -10 -17 -15 -17 -6 0 -20 -9 -31 -20
l-22 -20 -21 27 c-11 14 -18 30 -15 35 8 14 0 10 -19 -8z m107 -110 c-3 -16
-17 -45 -30 -65 -13 -21 -24 -50 -24 -64 0 -15 -7 -35 -15 -44 -14 -15 -14
-18 0 -30 16 -13 17 -11 -67 -113 l-26 -32 2 35 c1 19 -4 42 -11 51 -11 13
-10 19 2 35 15 18 15 18 12 -6 -2 -14 -2 -19 0 -12 3 7 9 10 14 6 6 -4 6 -10
-1 -19 -7 -9 -6 -16 4 -24 10 -8 16 -9 21 -1 4 6 3 9 -2 8 -4 -2 -8 2 -8 7 0
6 3 9 7 8 4 -2 5 6 3 16 -2 11 3 27 10 38 13 16 14 15 10 -15 -2 -18 0 -30 5
-27 5 3 6 13 3 22 -5 11 -3 14 6 9 9 -6 9 -1 -1 20 -15 30 -13 68 2 59 5 -3 6
-13 3 -23 -3 -9 -3 -14 1 -10 5 4 9 24 11 45 2 21 1 32 -2 24 -5 -11 -7 -11
-15 0 -8 11 -9 10 -4 -3 3 -11 1 -17 -7 -15 -7 1 -11 -7 -9 -23 4 -22 2 -23
-14 -10 -15 12 -16 12 -9 1 6 -10 4 -12 -5 -6 -9 6 -11 4 -5 -5 6 -9 4 -11 -5
-5 -9 6 -11 4 -5 -5 5 -9 4 -11 -4 -6 -6 4 -11 4 -10 -1 1 -4 1 -15 0 -23 -1
-13 -2 -13 -11 0 -9 13 -10 13 -11 0 -1 -8 0 -21 1 -29 1 -9 -4 -12 -15 -7
-10 4 -14 2 -9 -6 4 -6 3 -8 -3 -5 -5 3 -10 -1 -10 -9 0 -10 4 -11 11 -4 16
16 28 12 18 -7 -5 -10 -8 -28 -6 -41 3 -15 0 -21 -7 -17 -6 4 -8 13 -5 20 6
16 -29 50 -38 37 -3 -5 -1 -23 4 -41 5 -17 7 -31 4 -31 -3 0 0 -9 6 -19 8 -16
2 -29 -34 -72 -25 -30 -43 -56 -40 -60 2 -4 -3 -12 -10 -18 -27 -23 -29 10 -2
38 17 18 24 33 20 48 -3 11 0 24 7 29 9 5 11 2 6 -9 -3 -9 -2 -19 3 -22 5 -3
7 9 5 26 -4 26 -2 29 10 19 8 -7 12 -17 8 -24 -3 -6 -2 -7 3 -3 10 10 13 78 3
71 -5 -2 -6 5 -4 17 3 12 0 29 -6 38 -8 13 -9 11 -4 -6 4 -13 4 -23 0 -23 -3
0 -10 10 -15 23 -8 21 -9 21 -7 -5 1 -15 5 -24 11 -21 5 3 6 1 2 -6 -4 -6 -12
-9 -17 -6 -5 3 -6 -2 -3 -12 5 -15 4 -16 -6 -3 -10 13 -11 13 -7 -1 3 -9 1
-22 -4 -30 -6 -10 -9 -7 -9 12 0 15 -6 31 -13 37 -10 9 -13 4 -15 -20 -2 -18
-5 -34 -7 -36 -2 -3 0 -13 5 -23 6 -10 6 -20 1 -23 -13 -9 -19 24 -12 73 4 32
11 45 23 47 10 1 20 -2 24 -7 8 -14 24 0 18 16 -9 22 37 70 66 70 20 0 25 5
25 25 0 18 5 25 20 25 11 0 20 7 20 15 0 8 5 15 10 15 16 0 36 16 31 24 -3 4
-1 13 5 21 8 13 9 13 9 0 0 -9 5 -7 16 8 12 17 19 20 29 12 17 -14 24 -1 20
35 -2 26 -1 27 10 11 12 -16 15 -14 25 23 12 46 24 57 14 14z m-118 -205 c-9
-14 -13 -28 -9 -31 3 -4 3 -7 0 -7 -3 0 -11 9 -17 21 -9 16 -8 25 6 40 24 27
40 8 20 -23z m-147 -125 c-1 -5 0 -10 1 -13 1 -3 3 -14 5 -25 3 -18 3 -18 -9
-3 -11 15 -14 13 -30 -16 -9 -17 -14 -39 -11 -47 3 -9 0 -21 -8 -28 -21 -16
-47 14 -27 32 10 10 12 9 7 -4 -3 -9 0 -16 9 -16 11 0 10 7 -5 31 -12 22 -16
40 -10 61 l7 30 2 -30 c2 -16 3 -36 3 -42 -1 -20 3 -16 31 32 25 42 38 56 35
38z m-106 -93 c12 -31 12 -41 1 -61 -8 -15 -9 -28 -3 -35 6 -7 4 -16 -6 -24
-8 -7 -15 -11 -16 -9 -6 37 -6 58 2 53 5 -3 9 -2 8 3 -1 4 1 15 4 23 4 8 3 29
-2 45 -9 28 -9 29 -10 5 -1 -19 -4 -21 -10 -11 -5 8 -7 21 -4 30 4 13 3 14 -5
2 -7 -10 -7 -21 -1 -32 6 -11 5 -20 0 -24 -10 -5 -9 -23 4 -60 l7 -20 -17 20
c-9 11 -14 29 -12 41 2 11 -2 21 -8 21 -7 0 -10 -11 -8 -26 3 -23 2 -24 -6 -6
l-10 20 -1 -20 c-2 -11 -1 -27 0 -35 1 -11 -1 -12 -10 -4 -8 8 -8 19 0 39 6
16 8 35 6 42 -4 10 -1 11 14 3 18 -10 40 4 26 17 -9 9 12 40 28 40 8 0 21 -17
29 -37z m-26 -57 c-12 -13 -15 -13 -14 -2 2 8 7 21 12 29 7 11 10 11 13 1 2
-7 -3 -20 -11 -28z m-98 -35 c11 -11 17 -26 14 -31 -4 -6 -9 -3 -13 8 -6 18
-7 18 -12 -2 -4 -15 -1 -20 11 -18 9 1 19 -3 23 -8 7 -12 -20 -72 -29 -64 -2
3 1 15 7 27 8 15 9 25 2 32 -7 7 -17 0 -31 -22 -11 -19 -18 -37 -15 -41 2 -4
-6 -15 -18 -23 -12 -9 -17 -16 -10 -16 9 0 11 -36 1 -47 -2 -3 -5 -17 -8 -30
-1 -5 -5 -2 -10 6 -6 9 -4 23 7 40 10 14 12 22 6 18 -17 -10 -25 19 -10 32 7
6 17 7 21 3 5 -4 5 -1 1 6 -4 7 2 24 14 39 15 19 19 35 15 54 -4 15 -1 30 5
34 5 3 8 11 5 16 -11 17 4 9 24 -13z m68 -8 c6 -8 8 -19 5 -25 -4 -5 -7 -16
-8 -23 -3 -16 -35 -54 -41 -48 -3 2 0 13 5 23 6 11 7 25 2 33 -5 9 -5 19 1 27
6 7 8 17 4 23 -10 16 18 7 32 -10z m-134 -65 c23 4 22 -1 -12 -44 -23 -29 -27
-41 -19 -55 8 -14 4 -24 -18 -47 -15 -16 -28 -37 -29 -48 -1 -11 -9 -29 -20
-41 -16 -18 -19 -18 -30 -3 -7 9 -10 25 -7 35 6 24 22 13 17 -13 -4 -17 -2
-19 10 -9 8 7 13 15 10 19 -2 4 4 21 14 37 12 20 16 41 13 63 -3 24 -1 32 7
27 6 -4 9 -12 6 -17 -4 -5 -2 -16 3 -25 8 -15 10 -15 15 0 4 10 3 15 -3 11 -7
-4 -9 3 -6 19 3 15 1 24 -5 21 -5 -4 -9 -2 -9 4 0 5 5 13 10 16 6 3 10 0 10
-7 0 -10 2 -10 9 1 6 9 5 21 -2 32 -8 13 -13 15 -18 7 -4 -7 -5 -16 -3 -20 3
-4 1 -8 -5 -8 -9 0 -18 -28 -25 -85 -6 -42 -17 -66 -27 -59 -5 3 -5 12 0 22
12 22 46 154 43 165 -1 5 2 6 7 3 5 -4 13 -2 16 4 4 7 11 7 18 2 7 -5 20 -8
30 -7z m101 -97 c-3 -5 -12 -4 -20 3 -7 6 -11 15 -8 21 3 5 12 4 20 -3 7 -6
11 -15 8 -21z m-232 -22 c-6 -20 -7 -38 -3 -40 4 -3 8 6 9 18 1 13 6 34 12 47
8 19 9 15 4 -21 -3 -25 -12 -52 -20 -61 -8 -8 -14 -21 -14 -27 0 -6 -4 -13 -8
-16 -9 -6 -10 54 -1 69 4 6 10 25 14 43 4 18 9 31 12 29 2 -3 0 -21 -5 -41z
m62 -127 c-3 -5 -10 -7 -15 -3 -5 3 -7 10 -3 15 3 5 10 7 15 3 5 -3 7 -10 3
-15z"/>
<path d="M561 2834 c0 -11 3 -14 6 -6 3 7 2 16 -1 19 -3 4 -6 -2 -5 -13z"/>
<path d="M520 2789 c0 -5 -4 -8 -9 -5 -5 3 -14 -1 -20 -8 -10 -12 -9 -14 6
-11 10 2 20 4 23 5 3 1 8 2 12 1 4 0 5 6 2 14 -7 17 -14 20 -14 4z"/>
<path d="M630 2840 c-6 -11 -8 -20 -6 -20 3 0 10 9 16 20 6 11 8 20 6 20 -3 0
-10 -9 -16 -20z"/>
<path d="M243 2505 c-3 -9 -3 -18 -1 -21 3 -3 8 4 11 16 6 23 -1 27 -10 5z"/>
<path d="M316 2495 c-3 -9 -6 -22 -5 -28 0 -7 5 -1 10 12 5 13 8 26 5 28 -2 2
-6 -3 -10 -12z"/>
<path d="M170 2432 c11 -22 31 -22 29 1 0 8 -2 8 -6 -1 -4 -10 -9 -9 -20 5
-13 17 -13 16 -3 -5z"/>
<path d="M53 2275 c0 -8 4 -12 9 -9 5 3 6 10 3 15 -9 13 -12 11 -12 -6z"/>
<path d="M686 3056 c1 -12 3 -23 3 -25 1 -2 7 2 15 9 17 13 12 37 -8 37 -7 0
-11 -10 -10 -21z"/>
<path d="M595 3012 c-10 -20 -18 -41 -17 -45 2 -5 -3 -5 -9 -1 -7 4 -9 3 -5
-4 3 -6 2 -13 -3 -16 -8 -5 -8 15 -1 34 1 3 2 9 1 13 -1 5 3 6 8 3 5 -3 12 1
15 10 12 30 5 29 -24 -5 -24 -28 -27 -38 -19 -55 8 -17 6 -16 -11 4 -12 14
-19 20 -16 14 3 -7 -1 -17 -9 -24 -7 -6 -11 -18 -8 -26 6 -16 23 -9 19 9 -1 7
-1 9 1 4 3 -4 8 -5 12 -2 4 2 7 -8 5 -23 -3 -37 -2 -36 -18 -23 -11 9 -15 8
-22 -6 -4 -10 -9 -22 -9 -28 -1 -5 -7 -21 -13 -35 -8 -19 -11 -21 -11 -7 -1
10 -6 15 -11 12 -6 -4 -7 -11 -4 -17 4 -6 -1 -6 -14 1 -24 13 -32 14 -31 4 1
-5 1 -15 0 -23 -1 -13 -2 -13 -11 0 -5 9 -5 19 0 26 6 6 6 14 2 19 -4 4 3 3
15 -4 32 -16 38 -13 18 9 -17 19 -19 19 -36 4 -10 -9 -17 -20 -14 -24 2 -4 -7
-23 -20 -42 -13 -20 -21 -39 -17 -43 4 -5 1 -5 -7 0 -9 5 -12 4 -7 -3 3 -6 2
-13 -4 -17 -5 -3 -10 -14 -10 -23 0 -15 2 -15 10 -2 7 12 9 10 7 -7 -1 -18 -4
-20 -16 -10 -8 7 -12 7 -8 1 3 -6 0 -11 -8 -11 -11 0 -12 4 -4 13 14 17 2 57
-14 47 -7 -4 -5 2 3 13 8 10 16 21 18 24 2 3 3 -2 2 -10 -4 -27 0 -41 9 -35 6
3 8 14 6 25 -3 14 0 18 8 13 9 -5 9 -3 0 9 -7 8 -11 18 -8 22 3 3 -10 -7 -27
-23 -31 -29 -31 -31 -14 -50 13 -14 14 -21 5 -27 -8 -5 -10 -3 -4 7 8 12 6 12
-8 0 -9 -7 -23 -25 -30 -40 -14 -30 -34 -34 -61 -12 -16 14 -18 14 -14 1 3 -8
0 -26 -7 -40 -12 -24 -12 -56 -1 -68 3 -3 6 8 6 24 0 17 7 39 16 50 15 18 15
18 5 -3 -14 -28 -15 -85 -2 -63 6 8 8 18 5 22 -3 4 2 20 10 35 9 16 16 21 16
13 0 -11 4 -10 16 5 11 14 15 15 14 5 -3 -22 11 -60 22 -60 5 0 4 9 -2 20 -9
17 -7 26 10 48 12 15 32 27 43 27 18 0 22 6 22 35 0 21 5 35 13 36 6 1 14 3
17 4 3 1 8 3 13 4 17 3 32 18 27 27 -11 18 5 30 26 19 15 -8 19 -8 17 2 -2 7
3 12 9 11 14 -3 47 53 38 66 -2 5 2 11 10 15 8 3 17 1 20 -5 11 -17 26 2 24
29 -4 31 8 55 22 46 5 -3 8 -2 7 3 -1 4 6 25 16 46 14 27 21 35 27 25 5 -7 7
-22 5 -33 -2 -11 -1 -14 1 -6 4 11 7 11 13 2 5 -9 9 -6 13 8 3 12 1 19 -3 16
-8 -5 -37 36 -31 43 2 2 1 5 -1 8 -3 2 -13 -13 -23 -34z m-202 -275 c-3 -4
-11 -3 -19 4 -11 9 -14 8 -14 -6 0 -10 -3 -15 -7 -12 -3 4 0 18 7 32 12 23 14
23 26 7 7 -9 10 -20 7 -25z m-119 -83 c3 -9 2 -12 -5 -9 -6 4 -9 1 -7 -6 1 -8
0 -15 -5 -16 -8 -3 -9 5 -1 30 7 21 10 21 18 1z"/>
<path d="M546 3031 c-4 -5 -2 -12 3 -15 5 -4 12 -2 15 3 4 5 2 12 -3 15 -5 4
-12 2 -15 -3z"/>
<path d="M471 2925 c1 -5 0 -13 -1 -17 -1 -5 -4 -12 -5 -18 -1 -5 -3 -11 -5
-12 -1 -2 -3 -11 -5 -21 -2 -11 -7 -22 -11 -25 -4 -4 -4 1 -1 10 7 21 -9 34
-16 14 -3 -8 0 -19 6 -23 18 -14 42 -10 42 7 0 8 6 25 12 36 10 17 9 25 -3 40
-8 11 -14 15 -13 9z"/>
<path d="M515 2901 c-3 -5 -2 -12 3 -15 5 -3 9 1 9 9 0 17 -3 19 -12 6z"/>
<path d="M652 2709 c-17 -21 -19 -29 -10 -35 7 -4 10 -3 5 1 -4 5 3 19 15 32
12 12 20 25 17 27 -2 2 -14 -9 -27 -25z"/>
<path d="M665 2681 c-3 -5 -2 -12 3 -15 5 -3 9 1 9 9 0 17 -3 19 -12 6z"/>
<path d="M156 2671 c-4 -5 -2 -12 3 -15 5 -4 12 -2 15 3 4 5 2 12 -3 15 -5 4
-12 2 -15 -3z"/>
<path d="M553 2605 c0 -8 4 -12 9 -9 5 3 6 10 3 15 -9 13 -12 11 -12 -6z"/>
<path d="M511 2586 c-9 -11 -9 -16 0 -22 7 -4 9 -3 5 4 -3 6 2 15 11 21 10 6
13 11 7 11 -6 0 -17 -6 -23 -14z"/>
<path d="M199 2582 c-1 -4 -3 -16 -4 -27 -2 -11 -8 -33 -14 -48 -15 -38 -13
-46 4 -23 11 15 15 16 16 5 0 -11 14 11 24 41 1 3 5 13 10 23 4 10 5 21 1 24
-9 10 -36 13 -37 5z m26 -29 c-5 -10 -9 -22 -9 -27 -1 -5 -7 -10 -14 -12 -7
-1 -8 0 -3 2 5 3 7 17 5 32 -3 21 -2 23 6 12 8 -13 10 -12 10 4 0 11 3 17 6
13 4 -3 3 -14 -1 -24z"/>
<path d="M102 2565 c-5 -10 -7 -26 -4 -37 2 -10 -2 -26 -10 -36 -13 -15 -14
-23 -9 -48 0 -4 8 -1 16 6 8 7 15 9 15 4 1 -5 9 1 20 14 11 13 17 32 14 45 -3
12 -6 28 -8 35 -5 25 -23 35 -34 17z m20 -43 c-3 -9 -1 -13 5 -9 8 5 9 -2 4
-20 -4 -16 -12 -28 -17 -28 -5 0 -15 -4 -23 -9 -11 -7 -12 -6 -5 5 5 8 9 17 9
21 0 3 4 10 9 15 5 4 6 3 2 -4 -3 -6 -1 -15 4 -18 8 -5 9 8 6 42 -4 30 -2 43
3 34 5 -8 7 -21 3 -29z"/>
<path d="M534 2564 c1 -8 4 -15 7 -16 2 -2 3 -1 2 1 -2 2 2 9 7 16 7 8 5 12
-4 12 -8 0 -13 -6 -12 -13z"/>
<path d="M486 2551 c-3 -5 2 -15 12 -22 15 -12 16 -12 5 2 -7 9 -10 19 -6 22
3 4 4 7 0 7 -3 0 -8 -4 -11 -9z"/>
<path d="M160 2520 c-1 -3 -3 -16 -6 -30 -3 -21 -2 -22 7 -7 6 10 8 23 5 30
-2 7 -5 10 -6 7z"/>
<path d="M459 2505 c-1 -3 -2 -8 -3 -12 -1 -5 -5 -15 -10 -23 -7 -12 -6 -13 4
-3 13 12 23 43 14 43 -2 0 -5 -2 -5 -5z"/>
<path d="M423 2425 c0 -8 4 -12 9 -9 5 3 6 10 3 15 -9 13 -12 11 -12 -6z"/>
<path d="M353 2406 c-3 -6 -3 -8 2 -4 4 4 13 3 20 -2 8 -7 12 -5 12 3 0 16
-25 18 -34 3z"/>
<path d="M326 2341 c-3 -5 2 -15 12 -22 15 -12 16 -12 5 2 -7 9 -10 19 -6 22
3 4 4 7 0 7 -3 0 -8 -4 -11 -9z"/>
<path d="M235 2261 c-3 -5 -2 -12 3 -15 5 -3 9 1 9 9 0 17 -3 19 -12 6z"/>
<path d="M186 2215 c-3 -9 -10 -13 -16 -10 -17 10 -11 -2 8 -16 9 -7 14 -9 10
-5 -4 5 -3 15 4 23 6 7 9 16 6 19 -3 3 -8 -2 -12 -11z"/>
<path d="M105 2121 c-3 -5 -2 -12 3 -15 5 -3 9 1 9 9 0 17 -3 19 -12 6z"/>
<path d="M75 2111 c-3 -5 -2 -12 3 -15 5 -3 9 1 9 9 0 17 -3 19 -12 6z"/>
<path d="M33 2075 c0 -8 4 -12 9 -9 5 3 6 10 3 15 -9 13 -12 11 -12 -6z"/>
<path d="M827 1963 c-4 -3 -7 -136 -7 -295 l0 -288 4240 0 4240 0 -2 293 -3
292 -4231 3 c-2327 1 -4234 -1 -4237 -5z m2223 -123 c9 -5 19 -5 26 1 8 6 13
-4 18 -37 8 -63 8 -74 -4 -74 -5 0 -10 7 -10 15 0 31 -31 75 -56 81 -53 14
-92 -33 -108 -131 -10 -56 10 -134 41 -167 35 -37 78 -37 115 -1 15 15 28 22
28 15 0 -18 -52 -61 -82 -67 -37 -8 -86 20 -111 63 -24 42 -33 143 -17 201 16
61 67 111 112 111 18 0 40 -4 48 -10z m1560 -20 c45 -49 63 -158 39 -245 -6
-21 -26 -54 -45 -73 -29 -29 -39 -33 -66 -28 -59 12 -88 54 -103 153 -24 153
93 281 175 193z m4430 2 c36 -37 53 -100 48 -182 -5 -78 -30 -136 -70 -156
-81 -42 -149 38 -150 176 -1 84 15 132 53 165 41 34 83 33 119 -3z m-7901 -24
l-1 -43 -14 33 c-13 31 -17 32 -69 32 l-55 0 0 -70 0 -70 34 0 c47 0 66 9 66
31 0 10 5 19 10 19 6 0 10 -27 10 -60 0 -33 -4 -60 -10 -60 -5 0 -10 9 -10 19
0 22 -19 31 -66 31 l-35 0 3 -77 3 -78 47 -3 c37 -2 50 1 67 19 12 13 21 29
21 36 0 7 5 13 11 13 6 0 8 -8 6 -17 -3 -10 -8 -30 -11 -45 l-6 -28 -107 0
-107 0 22 20 c21 20 22 30 22 165 0 137 -1 145 -22 159 -21 15 -15 16 85 16
l107 0 -1 -42z m340 27 c43 -22 65 -77 65 -165 0 -60 -4 -83 -23 -116 -30 -53
-55 -64 -139 -64 -62 1 -65 2 -47 16 18 14 20 27 20 164 0 137 -2 150 -20 164
-18 14 -15 15 48 16 41 0 79 -6 96 -15z m389 2 l-28 -11 0 -153 0 -152 28 -15
c26 -15 25 -15 -40 -16 -73 0 -83 5 -43 20 l25 10 0 149 0 150 -27 15 c-27 15
-26 15 42 15 61 -1 66 -3 43 -12z m446 -3 c8 -22 8 -54 -2 -54 -4 0 -12 10
-17 23 -9 19 -17 22 -70 22 l-60 0 -3 -68 -3 -68 53 3 c46 3 53 6 56 26 7 46
22 20 22 -38 0 -63 -8 -75 -25 -37 -8 18 -18 22 -55 22 l-45 0 -3 -45 c-5 -67
5 -106 31 -118 18 -9 12 -11 -38 -11 -56 0 -59 1 -40 15 18 13 20 29 23 158 3
139 3 145 -19 165 l-23 21 106 0 c87 0 107 -3 112 -16z m334 4 l-28 -10 0
-157 0 -157 28 -11 c24 -10 19 -11 -41 -12 -43 -1 -66 3 -62 9 3 6 12 10 20
10 7 0 16 7 19 16 9 23 7 277 -2 291 -4 7 -19 16 -32 22 -20 8 -9 10 50 10 62
-1 70 -2 48 -11z m777 -148 c20 -80 44 -155 51 -167 20 -32 19 -33 -26 -33
-36 0 -39 2 -29 18 8 13 9 31 3 58 -10 38 -11 39 -54 39 -43 0 -44 -1 -54 -39
-6 -27 -5 -45 3 -58 10 -16 8 -18 -20 -18 -26 0 -30 3 -24 18 7 14 40 133 86
306 6 21 14 35 18 30 4 -5 25 -74 46 -154z m346 30 l69 -125 0 114 c0 97 -3
116 -17 127 -16 12 -14 13 21 14 31 0 36 -3 27 -13 -6 -8 -12 -79 -13 -183
l-3 -169 -75 143 -75 143 -3 -122 c-2 -103 0 -125 14 -140 16 -18 15 -19 -26
-19 -41 0 -42 1 -27 18 26 28 25 297 0 325 -17 18 -17 19 11 15 25 -3 36 -18
97 -128z m429 117 c14 -6 35 -32 48 -57 45 -90 19 -244 -48 -277 -14 -7 -56
-13 -95 -12 -67 0 -69 1 -47 16 21 15 22 21 22 164 0 141 -1 149 -22 163 -21
15 -19 16 47 16 39 0 81 -6 95 -13z m1220 -29 l-1 -43 -14 33 c-13 31 -16 32
-70 32 l-55 0 0 -70 0 -70 38 0 c42 0 55 7 67 35 8 17 9 16 13 -12 2 -18 2
-48 0 -65 -4 -29 -5 -30 -13 -13 -12 28 -25 35 -68 35 l-38 0 3 -77 3 -78 47
-3 c48 -3 64 6 95 54 11 16 12 13 7 -21 -4 -22 -9 -43 -11 -47 -2 -5 -52 -8
-111 -7 -100 0 -106 1 -84 16 21 15 22 21 22 164 0 141 -1 149 -22 163 -21 15
-15 16 85 16 l107 0 0 -42z m271 25 c-21 -17 -22 -25 -19 -168 l3 -150 38 -3
c43 -4 82 17 92 48 3 11 10 20 15 20 8 0 8 -5 -5 -62 l-5 -28 -107 0 -107 0
22 20 c21 20 22 30 22 165 0 137 -1 145 -22 159 -21 15 -20 16 36 16 57 0 58
0 37 -17z m909 -18 c0 -40 -11 -45 -25 -12 -8 18 -19 22 -67 25 l-58 3 0 -71
0 -71 48 3 c40 3 47 6 50 26 7 46 22 20 22 -38 0 -58 -15 -84 -22 -37 -3 19
-10 22 -50 25 l-48 3 0 -74 c0 -66 3 -76 23 -90 21 -15 20 -16 -37 -16 l-60
-1 22 20 c21 19 22 30 22 160 0 127 -2 142 -20 160 l-20 20 110 0 110 0 0 -35z
m358 24 c-16 -9 -18 -27 -18 -149 0 -131 1 -140 23 -166 30 -34 63 -26 83 22
21 51 20 261 -3 286 -15 17 -14 18 22 18 29 0 35 -3 27 -12 -5 -7 -12 -74 -14
-148 -3 -81 -10 -146 -18 -162 -18 -37 -61 -54 -99 -39 -45 19 -54 52 -59 201
-2 74 -9 141 -14 148 -8 9 0 12 38 12 38 -1 45 -3 32 -11z m642 -35 c0 -27 -4
-43 -10 -39 -5 3 -10 15 -10 25 0 21 -28 40 -59 40 -20 0 -21 -5 -21 -150 0
-141 1 -150 22 -170 l22 -20 -60 1 c-57 0 -58 1 -36 16 21 15 22 21 22 170 l0
154 -27 -3 c-20 -2 -32 -12 -43 -35 -15 -33 -38 -47 -26 -17 3 9 6 29 6 45 l0
29 110 0 110 0 0 -46z m346 27 c-16 -17 -18 -37 -14 -156 3 -130 4 -138 27
-156 30 -25 37 -24 66 6 24 23 25 29 25 164 0 123 -2 141 -17 150 -14 8 -9 10
26 11 42 0 43 -1 28 -18 -14 -15 -17 -41 -17 -143 0 -98 -4 -131 -18 -159 -32
-65 -117 -61 -142 6 -6 14 -10 82 -10 151 0 104 -3 130 -17 145 -15 17 -14 18
32 18 47 0 48 0 31 -19z m599 -6 c18 -17 25 -35 25 -63 0 -42 -30 -92 -56 -92
-8 0 -14 -2 -14 -4 0 -17 67 -145 84 -159 21 -17 21 -18 -13 -15 -33 3 -36 7
-70 86 -46 104 -66 108 -66 10 0 -55 4 -70 20 -82 19 -14 16 -15 -34 -16 -52
0 -53 1 -38 18 14 16 17 43 17 167 0 129 -2 149 -17 161 -16 11 -7 13 60 14
70 0 81 -3 102 -25z"/>
<path d="M4506 1811 c-59 -66 -42 -295 24 -316 56 -18 95 55 94 175 -1 73 -20
134 -48 152 -20 14 -53 8 -70 -11z"/>
<path d="M8930 1798 c-26 -44 -34 -86 -28 -166 8 -106 47 -159 98 -132 47 25
71 135 51 231 -21 98 -82 131 -121 67z"/>
<path d="M1380 1665 c0 -170 3 -178 58 -159 44 16 66 57 70 133 7 113 -31 181
-99 181 l-29 0 0 -155z"/>
<path d="M3348 1685 l-15 -65 37 0 37 0 -15 65 c-9 36 -19 65 -22 65 -3 0 -13
-29 -22 -65z"/>
<path d="M4110 1660 c0 -155 1 -160 20 -160 33 0 75 26 88 54 38 83 17 223
-38 251 -16 8 -38 15 -50 15 -19 0 -20 -5 -20 -160z"/>
<path d="M8437 1813 c-4 -3 -7 -37 -7 -75 l0 -68 30 0 c66 0 105 85 60 130
-19 19 -69 27 -83 13z"/>
</g>
</svg>
